<?xml version="1.0" encoding="utf-8"?>
<!-- Generator: Adobe Illustrator 22.0.1, SVG Export Plug-In . SVG Version: 6.00 Build 0)  -->
<svg version="1.1" xmlns="http://www.w3.org/2000/svg" xmlns:xlink="http://www.w3.org/1999/xlink" x="0px" y="0px"
	 viewBox="0 0 50.8 50.8" style="enable-background:new 0 0 50.8 50.8;" xml:space="preserve">
<style type="text/css">
	.st0{fill:#673AB7;}
	.st1{fill:#FFC107;}
	.st2{fill:#AAAAAA;}
</style>
<g id="Layer_4">
	<path class="st0" d="M41.9,11.4L43,8.7c-5.7-3.2-11-4.8-15.7-4.8c-0.1,0-0.2,0-0.3,0l-1-2.7C19.7,3,14.9,5.6,11.6,8.9
		c-0.1,0.1-0.2,0.2-0.3,0.3c-1,1-1.8,2.1-2.5,3.3l5.4,5.4c1.1-0.7,2.4-1.3,3.9-1.9c2.4-1,5.4-1.9,8.8-2.5c2.5,1,5.2,2.5,8.1,4.5
		c1,2.4,2,5.6,2.6,9c-0.3,0.7-0.8,1.5-1.3,2.5l8.5,8.5c1.5-3.8,2.3-7.4,2.3-10.7c0-0.1,0-0.2,0-0.3l2.6-1
		C47.8,19.6,45.2,14.8,41.9,11.4z"/>
	<path class="st1" d="M36.9,33c-1.2,0.7-2.5,1.3-3.9,2c-2.5,0.9-5.4,1.8-8.8,2.5c-0.1,0-0.1,0-0.2,0c-2.4-1.1-5-2.5-7.9-4.4
		c0-0.1-0.1-0.1-0.2-0.2c-1-2.4-1.8-5.3-2.5-8.7c0.4-0.9,0.9-1.9,1.4-2.8l-8.5-8.5C4.7,16.7,3.9,20.3,4,23.6c0,0.1,0,0.2,0,0.3
		l-2.8,1C3,31.2,5.6,36,9,39.4l0.2,0.2l-1.1,2.6c5.7,3.1,10.9,4.7,15.7,4.7c0,0,0.1,0,0.2,0l1,2.7c6.3-1.8,11.1-4.4,14.5-7.8
		c0,0,0.1-0.1,0.2-0.2c1-1,1.9-2.2,2.6-3.3L36.9,33z"/>
</g>
<g id="Layer_2">
	<path class="st2" d="M36.9,33c-1.2,0.7-2.5,1.3-3.9,2c-2.2,0.8-4.7,1.6-7.6,2.2v12.3c6.1-1.8,10.8-4.4,14.1-7.7
		c0,0,0.1-0.1,0.2-0.2c1-1,1.9-2.2,2.6-3.3L36.9,33z"/>
	<path class="st2" d="M41.9,11.4L43,8.7c-5.7-3.2-11-4.8-15.7-4.8c-0.1,0-0.2,0-0.3,0l-1-2.7c-0.2,0.1-0.4,0.1-0.6,0.2v12.3
		c0.5-0.1,0.9-0.2,1.4-0.3c2.5,1,5.2,2.5,8.1,4.5c1,2.4,2,5.6,2.6,9c-0.3,0.7-0.8,1.5-1.3,2.5l8.5,8.5c1.5-3.8,2.3-7.4,2.3-10.7
		c0-0.1,0-0.2,0-0.3l2.6-1C47.8,19.6,45.2,14.8,41.9,11.4z"/>
</g>
</svg>
