<?xml version="1.0" encoding="utf-8"?>
<!-- Generator: Adobe Illustrator 22.0.1, SVG Export Plug-In . SVG Version: 6.00 Build 0)  -->
<svg version="1.1" id="Layer_4" xmlns="http://www.w3.org/2000/svg" xmlns:xlink="http://www.w3.org/1999/xlink" x="0px" y="0px"
	 viewBox="0 0 50.835 50.833" style="enable-background:new 0 0 50.835 50.833;" xml:space="preserve">
<style type="text/css">
	.st0{fill:#673AB7;}
	.st1{fill:#FFC107;}
</style>
<path class="st0" d="M41.919,11.416l1.1-2.7c-5.7-3.2-11-4.8-15.7-4.8c-0.1,0-0.2,0-0.3,0l-1-2.7c-6.3,1.8-11.1,4.4-14.4,7.7
	c-0.1,0.1-0.2,0.2-0.3,0.3c-1.009,1.009-1.833,2.082-2.528,3.258l5.362,5.362c1.144-0.699,2.417-1.31,3.866-1.92
	c2.4-1,5.4-1.9,8.8-2.5c2.5,1,5.2,2.5,8.1,4.5c1,2.4,2,5.6,2.6,9c-0.301,0.657-0.777,1.542-1.307,2.479l8.459,8.459
	c1.542-3.798,2.347-7.369,2.347-10.738c0-0.1,0-0.2,0-0.3l2.6-1C47.819,19.616,45.219,14.816,41.919,11.416z"/>
<path class="st1" d="M36.945,32.956c-1.16,0.715-2.451,1.339-3.926,1.96c-2.5,0.9-5.4,1.8-8.8,2.5c-0.1,0-0.1,0-0.2,0
	c-2.4-1.1-5-2.5-7.9-4.4c0-0.1-0.1-0.1-0.2-0.2c-1-2.4-1.8-5.3-2.5-8.7c0.399-0.907,0.87-1.851,1.375-2.811L6.338,12.85
	c-1.593,3.817-2.39,7.444-2.319,10.767c0,0.1,0,0.2,0,0.3l-2.8,1c1.8,6.3,4.4,11.1,7.8,14.5l0.2,0.2l-1.1,2.6
	c5.7,3.1,10.9,4.7,15.7,4.7c0,0,0.1,0,0.2,0l1,2.7c6.3-1.8,11.1-4.4,14.5-7.8c0,0,0.1-0.1,0.2-0.2
	c1.021-1.021,1.852-2.165,2.551-3.335L36.945,32.956z"/>
</svg>
