<?xml version="1.0" encoding="utf-8"?>
<!-- Generator: Adobe Illustrator 22.0.1, SVG Export Plug-In . SVG Version: 6.00 Build 0)  -->
<svg version="1.1" id="Layer_2" xmlns="http://www.w3.org/2000/svg" xmlns:xlink="http://www.w3.org/1999/xlink" x="0px" y="0px"
	 viewBox="0 0 50.835 50.833" style="enable-background:new 0 0 50.835 50.833;" xml:space="preserve">
<style type="text/css">
	.st0{fill:#FFC107;stroke:#FFFFFF;stroke-width:2;stroke-miterlimit:10;}
	.st1{fill:#673AB7;stroke:#FFFFFF;stroke-width:2;stroke-miterlimit:10;}
	.st2{fill:#FFFFFF;}
</style>
<g>
	<path class="st0" d="M42.819,37.316l-4.9-5c-1.4,1-3,1.8-4.9,2.6c-2.5,0.9-5.4,1.8-8.8,2.5c-0.1,0-0.1,0-0.2,0
		c-2.4-1.1-5-2.5-7.9-4.4c0-0.1-0.1-0.1-0.2-0.2c-1-2.4-1.8-5.3-2.5-8.7l0,0c1.1-2.5,2.6-5.2,4.5-8.1c0,0,0,0,0.1-0.1
		c-1.9,0.8-3.5,1.6-4.9,2.6l-4.9-5c0.8-1.6,1.8-3,3.1-4.3l-2.6-1.2c-3.2,5.6-4.8,10.9-4.7,15.6c0,0.1,0,0.2,0,0.3l-2.8,1
		c1.8,6.3,4.4,11.1,7.8,14.5l0.2,0.2l-1.1,2.6c5.7,3.1,10.9,4.7,15.7,4.7c0,0,0.1,0,0.2,0l1,2.7c6.3-1.8,11.1-4.4,14.5-7.8
		c0,0,0.1-0.1,0.2-0.2C41.019,40.316,42.019,38.816,42.819,37.316z"/>
	<path class="st1" d="M43.019,8.716c-5.7-3.2-11-4.8-15.7-4.8c-0.1,0-0.2,0-0.3,0l-1-2.7c-6.3,1.8-11.1,4.4-14.4,7.7
		c-0.1,0.1-0.2,0.2-0.3,0.3c-1.3,1.3-2.3,2.7-3.1,4.3l4.9,5c1.4-1,3-1.8,4.9-2.6c2.4-1,5.4-1.9,8.8-2.5c2.5,1,5.2,2.5,8.1,4.5
		c1,2.4,2,5.6,2.6,9l0,0c-1.1,2.4-4.5,7.8-4.5,7.9c1.9-0.8,3.5-1.5,4.9-2.5l4.9,5c-0.8,1.5-1.8,3-3.1,4.3l2.6,1.2
		c3.1-5.7,4.7-10.9,4.7-15.7c0-0.1,0-0.2,0-0.3l2.6-1c-1.8-6.2-4.4-11-7.7-14.4L43.019,8.716z"/>
	<polyline class="st2" points="8.823,8.946 7.138,13.301 10.494,9.866 	"/>
	<polygon class="st2" points="43.793,37.718 40.438,41.153 42.109,42.073 	"/>
</g>
</svg>
