<svg version="1" xmlns="http://www.w3.org/2000/svg" width="933.333" height="933.333" viewBox="0 0 700.000000 700.000000"><path d="M338.5 22.9c-43.2 14-77.4 28.8-109.5 47.6-38.4 22.4-75.1 54.2-95.8 83-5.1 7.2-11.2 16.5-11.5 17.7-.1.4 16.2 17.2 36.2 37.3 30.2 30.2 36.8 36.4 38.5 35.9 1.2-.4 5.1-2.4 8.8-4.6 10-5.9 40.4-19.7 57.3-26 20.3-7.6 36.9-12.8 57.6-18.2 15.1-3.9 20.7-5.2 30.4-7 1.1-.2 5.8-1.2 10.6-2.1 8.3-1.6 8.6-1.6 13 .3 2.4 1.1 7.3 3.3 10.9 4.8 8.7 3.8 38.8 19.2 42.2 21.5 1.4 1.1 2.8 1.9 3 1.9 1 0 22.1 13 36 22l14.5 9.5 4.6 12c5.8 14.8 12.9 36.1 16.2 48 5.3 19.4 9.8 37.3 12.4 50.4l2.8 13.6-6.2 12c-3.4 6.6-7.4 14.4-9 17.2l-2.8 5.3 58.2 58.1 58.1 58.1 1.8-4.4c2.1-4.7 9.8-26.5 13.1-36.8 2.6-8.3 8.6-30.9 10-38 2.1-10.9 2.2-11.3 5.6-33.5.5-3.4 1.7-25.2 1.9-33.5l.1-5.4 7.5-3.1c4.1-1.7 12.1-4.8 17.8-7 5.6-2.1 10.2-4.2 10.2-4.5 0-1.2-13.5-41.9-16.8-50.5-15.5-41.3-40.7-88.3-61.8-115.2-2.2-2.7-5-6.5-6.4-8.3-1.4-1.9-6.5-7.9-11.4-13.3l-9-9.9 1.1-3.6c.6-2.1 3.8-10.4 7.2-18.5 3.4-8.2 5.9-15.3 5.5-15.8-.3-.5-2.7-2-5.2-3.3-2.6-1.3-12.1-6.1-21.2-10.8-26.1-13.3-46.9-22.1-74.5-31.5-8.8-3-17.8-5.8-20-6.3-2.2-.5-8.3-2-13.5-3.4-5.2-1.5-11.3-2.9-13.5-3.1-2.1-.3-5.5-1-7.5-1.5-3.9-1-7-1.5-15-2.5-3-.4-6.6-.8-8-1-6.7-1.1-13.7-1.6-26.5-2.1-7.7-.4-14.3-.9-14.6-1.2-.3-.4-2.5-6.1-4.8-12.7s-4.9-13.4-5.6-15c-.7-1.7-1.7-4.2-2-5.8-.4-1.5-1.2-2.7-1.9-2.6-.6 0-9.2 2.6-19.1 5.8zM83.7 186.2c-10.6 26.9-19.4 56.8-23.1 78.3-3.4 19.9-4.5 31.2-5 51.3-.2 7.3-.5 13.4-.7 13.6-.6.4-26.1 9.7-27.9 10.1-3.4.7-10 3.8-10 4.6 0 .4.4 1.8.9 3.1s2.6 7.7 4.6 14.3C34.1 399.3 56.2 450 71 473c.5.8 1.7 2.8 2.6 4.5 7.9 14.1 27.6 40.4 42.6 56.6l10.8 11.6-4 9.4c-2.3 5.2-4.5 10.3-5 11.4-3.7 8.1-5.7 14.1-4.9 15.1 1.8 2.1 46.1 23.7 61.4 29.8 3.9 1.6 9.5 3.9 12.5 5.2 20.4 8.6 60.4 20.1 83.5 24 1.7.2 3.7.7 4.5.9.8.2 4.2.7 7.5 1.1 3.3.3 6.9.8 8 1 1.1.3 5.8.7 10.5 1 4.7.3 9.4.7 10.5.9 1.1.2 5.9.4 10.7.4l8.6.1 1.5 4.2c3.9 11 11.9 32.3 12.2 32.6.3.3 15.8-4.3 28.5-8.5 12.8-4.2 35.6-12.7 43.1-16.2 2.4-1.1 7.8-3.4 11.9-5.1 4.1-1.8 13.6-6.3 21-10.1 59.5-30 106.1-70.4 132.3-114.6.4-.7-13.6-15.4-35.9-37.7l-36.6-36.7-5.7 3.2c-29.7 16.9-48.3 24.5-97.1 39.7-8.2 2.6-43.5 12.1-47.5 12.8-1.6.3-7.7 1.6-13.3 3-5.7 1.3-11.5 2.4-12.8 2.4-2.3 0-33.5-15-47.9-23-25.2-13.9-61.1-35.8-63.8-38.8-4.9-5.4-22.1-59.4-29.8-93.4-1.1-5.1-2.2-10-2.4-10.8-.2-.8-1.1-5-2-9.2l-1.6-7.8 4.2-9.2c2.3-5.1 6.4-13.4 9.1-18.5 2.6-5.1 4.8-9.8 4.8-10.5 0-.7-26-27.3-57.8-59.1l-57.8-57.8-3.7 9.3z"/></svg>