<?xml version="1.0" standalone="no"?>
<!DOCTYPE svg PUBLIC "-//W3C//DTD SVG 20010904//EN"
 "http://www.w3.org/TR/2001/REC-SVG-20010904/DTD/svg10.dtd">
<svg version="1.0" xmlns="http://www.w3.org/2000/svg"
 width="700.000000pt" height="700.000000pt" viewBox="0 0 700.000000 700.000000"
 preserveAspectRatio="xMidYMid meet">
<metadata>
Created by potrace 1.11, written by Peter Selinger 2001-2013
</metadata>
<g transform="translate(0.000000,700.000000) scale(0.100000,-0.100000)"
fill="#000000" stroke="none">
<path d="M3445 6793 c-398 -125 -835 -309 -1095 -460 -135 -78 -177 -105 -272
-169 -163 -111 -329 -247 -469 -385 -149 -145 -230 -243 -327 -392 l-71 -109
369 -369 c203 -203 374 -369 380 -369 6 0 29 12 52 26 66 42 243 128 383 187
123 51 164 68 175 72 3 1 14 5 25 9 11 4 34 13 50 18 17 6 44 17 60 23 100 41
521 166 637 189 13 2 57 12 98 21 41 9 86 18 100 21 14 2 36 7 50 10 24 6 45
10 98 19 46 8 430 -179 707 -343 106 -63 355 -221 365 -232 3 -3 15 -12 28
-20 27 -18 77 -138 157 -380 48 -145 119 -389 128 -438 2 -9 9 -37 16 -62 7
-25 28 -117 46 -205 l33 -160 -90 -174 -90 -174 589 -589 c323 -323 591 -588
594 -588 5 0 46 98 54 130 1 3 4 12 8 20 27 69 129 400 141 460 3 14 14 61 25
105 10 44 22 96 25 115 3 19 10 58 15 85 29 152 48 349 50 516 1 89 -17 74
186 150 77 28 147 56 156 60 15 8 13 22 -23 136 -22 71 -44 137 -48 148 -5 11
-32 85 -60 165 -90 249 -268 648 -344 769 -13 20 -38 63 -56 96 -81 149 -282
432 -402 568 -110 123 -118 132 -118 140 0 8 100 259 125 314 23 48 19 56 -42
89 -171 93 -222 118 -370 188 -384 180 -827 329 -1128 380 -16 2 -55 9 -85 15
-74 14 -310 39 -390 41 -142 4 -159 5 -166 13 -4 4 -37 88 -74 186 l-65 178
-140 -44z"/>
<path d="M867 5213 c-37 -63 -194 -519 -211 -613 -2 -14 -12 -54 -21 -90 -9
-36 -18 -72 -20 -80 -1 -8 -6 -35 -11 -60 -4 -25 -8 -47 -9 -50 -1 -3 -5 -30
-9 -60 -5 -30 -10 -63 -12 -74 -3 -18 -14 -131 -19 -211 -2 -22 -3 -92 -4
-156 l-1 -116 -42 -13 c-24 -8 -45 -14 -48 -15 -3 0 -9 -3 -15 -6 -5 -4 -41
-17 -80 -29 -38 -12 -74 -25 -80 -29 -5 -3 -12 -6 -15 -6 -29 -5 -93 -31 -96
-40 -6 -15 82 -295 149 -476 112 -299 234 -561 375 -804 41 -71 78 -132 81
-135 3 -3 33 -45 66 -95 85 -128 201 -273 318 -399 56 -60 101 -114 100 -120
-2 -6 -34 -85 -73 -176 -38 -90 -70 -167 -70 -171 0 -3 71 -42 158 -87 515
-264 984 -431 1422 -508 14 -3 32 -7 40 -9 8 -3 38 -7 65 -10 58 -7 92 -11
155 -20 72 -9 148 -14 251 -15 l95 -2 69 -184 68 -184 36 6 c20 4 106 29 191
57 964 309 1672 782 2105 1406 l58 83 -174 170 c-96 93 -263 257 -372 365
l-198 195 -267 -135 c-214 -109 -304 -148 -447 -197 -223 -76 -514 -160 -705
-205 -80 -19 -158 -39 -175 -44 -16 -5 -63 -17 -102 -26 l-73 -17 -72 33 c-89
42 -334 165 -414 209 -227 125 -592 348 -626 382 -23 23 -148 356 -173 458 0
3 -9 32 -19 65 -10 33 -24 83 -31 110 -53 199 -76 292 -81 319 -2 17 -11 58
-19 91 -8 33 -19 86 -26 117 l-12 58 95 192 96 192 -584 583 c-320 321 -585
580 -587 576z"/>
</g>
</svg>
